<mxfile host="Electron" modified="2023-10-01T02:41:23.032Z" agent="Mozilla/5.0 (X11; Linux x86_64) AppleWebKit/537.36 (KHTML, like Gecko) draw.io/22.0.0 Chrome/114.0.5735.289 Electron/25.8.3 Safari/537.36" etag="H63I7Q9gviAjZnKsQnvY" version="22.0.0" type="device">
  <diagram name="Page-1" id="fo18u6Ch1KVScq3Fo-Wy">
    <mxGraphModel dx="1898" dy="1139" grid="1" gridSize="10" guides="1" tooltips="1" connect="1" arrows="1" fold="1" page="1" pageScale="1" pageWidth="1700" pageHeight="1100" math="0" shadow="0">
      <root>
        <object label="" description="Use Edit-&gt;Edit Data... on the document to configure the &quot;description&quot; property and modify this text.&#xa;When creating a new page, use the Extras-&gt;Edit Diagram... function to copy and paste the raw code for the template page." rev="A0" size="tabloid" scale="1:1" author="John Doe" part_num="" dwg_no="" serial_num="" extra_label="Part #" id="0">
          <mxCell />
        </object>
        <object label="Title Block" id="1">
          <mxCell style="locked=1;" parent="0" />
        </object>
        <mxCell id="BJZrzUYKFe9HMTDBOYGV-1" value="" style="rounded=0;whiteSpace=wrap;html=1;fillColor=none;movable=1;resizable=1;rotatable=1;deletable=1;editable=1;locked=0;connectable=1;" parent="1" vertex="1">
          <mxGeometry x="19.685" y="19.685" width="1657.4769999999999" height="1059.0529999999999" as="geometry" />
        </mxCell>
        <mxCell id="BJZrzUYKFe9HMTDBOYGV-2" value="" style="rounded=0;whiteSpace=wrap;html=1;fillColor=none;strokeWidth=1;movable=1;resizable=1;rotatable=1;deletable=1;editable=1;locked=0;connectable=1;" parent="1" vertex="1">
          <mxGeometry x="39.37" y="39.37" width="1618.107" height="1019.683" as="geometry" />
        </mxCell>
        <mxCell id="h7L3MlKvrl_dhOmhB3lf-10" value="Prepared with: draw.io v22.0.0" style="strokeWidth=1;shadow=0;dashed=0;align=center;html=1;shape=mxgraph.mockup.text.textBox;fontColor=#666666;align=left;fontSize=17;spacingLeft=4;spacingTop=-3;whiteSpace=wrap;strokeColor=#333333;mainText=;fillColor=none;fontFamily=Open Sans;movable=1;resizable=1;rotatable=1;deletable=1;editable=1;locked=0;connectable=1;" parent="1" vertex="1">
          <mxGeometry x="1098.98" y="1029.0500000000002" width="280" height="30" as="geometry" />
        </mxCell>
        <object label="&lt;div align=&quot;left&quot;&gt;Sheet %pagenumber%/%pagecount%&lt;/div&gt;" placeholders="1" id="h7L3MlKvrl_dhOmhB3lf-12">
          <mxCell style="strokeWidth=1;shadow=0;dashed=0;align=left;html=1;shape=mxgraph.mockup.text.textBox;fontColor=#666666;align=left;fontSize=17;spacingLeft=4;spacingTop=-3;whiteSpace=wrap;strokeColor=#333333;mainText=;fillColor=none;fontFamily=Open Sans;movable=1;resizable=1;rotatable=1;deletable=1;editable=1;locked=0;connectable=1;" parent="1" vertex="1">
            <mxGeometry x="938.98" y="1029.0500000000002" width="160" height="30" as="geometry" />
          </mxCell>
        </object>
        <object label="Date: &lt;font style=&quot;font-size: 17px;&quot;&gt;%date{ddd mmm dd yyyy HH:MM:ss}%&lt;/font&gt;" placeholders="1" id="h7L3MlKvrl_dhOmhB3lf-13">
          <mxCell style="strokeWidth=1;shadow=0;dashed=0;align=center;html=1;shape=mxgraph.mockup.text.textBox;fontColor=#666666;align=left;fontSize=17;spacingLeft=4;spacingTop=-3;whiteSpace=wrap;strokeColor=#333333;mainText=;fillColor=none;fontFamily=Open Sans;movable=1;resizable=1;rotatable=1;deletable=1;editable=1;locked=0;connectable=1;" parent="1" vertex="1">
            <mxGeometry x="1378.98" y="1029.0500000000002" width="278.5" height="30" as="geometry" />
          </mxCell>
        </object>
        <object label="&lt;b&gt;Title: %page%&lt;/b&gt;" placeholders="1" id="h7L3MlKvrl_dhOmhB3lf-14">
          <mxCell style="strokeWidth=1;shadow=0;dashed=0;align=center;html=1;shape=mxgraph.mockup.text.textBox;fontColor=#666666;align=left;fontSize=17;spacingLeft=4;spacingTop=-3;whiteSpace=wrap;strokeColor=#333333;mainText=;fillColor=none;fontFamily=Open Sans;movable=1;resizable=1;rotatable=1;deletable=1;editable=1;locked=0;connectable=1;" parent="1" vertex="1">
            <mxGeometry x="938.98" y="939.0499999999998" width="600" height="30" as="geometry" />
          </mxCell>
        </object>
        <object label="Filename: %filename%" placeholders="1" id="h7L3MlKvrl_dhOmhB3lf-15">
          <mxCell style="strokeWidth=1;shadow=0;dashed=0;align=center;html=1;shape=mxgraph.mockup.text.textBox;fontColor=#666666;align=left;fontSize=17;spacingLeft=4;spacingTop=-3;whiteSpace=wrap;strokeColor=#333333;mainText=;fillColor=none;fontFamily=Open Sans;movable=1;resizable=1;rotatable=1;deletable=1;editable=1;locked=0;connectable=1;" parent="1" vertex="1">
            <mxGeometry x="938.98" y="969.0500000000001" width="400" height="30" as="geometry" />
          </mxCell>
        </object>
        <object label="&lt;div align=&quot;left&quot;&gt;%description%&lt;/div&gt;" placeholders="1" id="h7L3MlKvrl_dhOmhB3lf-16">
          <mxCell style="strokeWidth=1;shadow=0;dashed=0;html=1;shape=mxgraph.mockup.text.textBox;fontColor=#666666;align=left;verticalAlign=top;fontSize=12;spacingLeft=4;spacingTop=-3;whiteSpace=wrap;strokeColor=#333333;mainText=;fillColor=none;fontFamily=Open Sans;movable=1;resizable=1;rotatable=1;deletable=1;editable=1;locked=0;connectable=1;" parent="1" vertex="1">
            <mxGeometry x="938.98" y="849.0499999999998" width="718.5" height="90" as="geometry" />
          </mxCell>
        </object>
        <object label="&lt;b&gt;Rev: %rev%&lt;br&gt;&lt;/b&gt;" placeholders="1" id="EyKvBmyPNv_MzgSUc5b6-1">
          <mxCell style="strokeWidth=1;shadow=0;dashed=0;align=center;html=1;shape=mxgraph.mockup.text.textBox;fontColor=#666666;align=left;fontSize=17;spacingLeft=4;spacingTop=-3;whiteSpace=wrap;strokeColor=#333333;mainText=;fillColor=none;fontFamily=Open Sans;movable=1;resizable=1;rotatable=1;deletable=1;editable=1;locked=0;connectable=1;" parent="1" vertex="1">
            <mxGeometry x="1538.98" y="939.0499999999998" width="118.5" height="30" as="geometry" />
          </mxCell>
        </object>
        <object label="&lt;div align=&quot;left&quot;&gt;Size: %size%&lt;/div&gt;" placeholders="1" id="kxruepuoSyuf0zwoeRE9-5">
          <mxCell style="strokeWidth=1;shadow=0;dashed=0;align=left;html=1;shape=mxgraph.mockup.text.textBox;fontColor=#666666;align=left;fontSize=17;spacingLeft=4;spacingTop=-3;whiteSpace=wrap;strokeColor=#333333;mainText=;fillColor=none;fontFamily=Open Sans;movable=1;resizable=1;rotatable=1;deletable=1;editable=1;locked=0;connectable=1;" parent="1" vertex="1">
            <mxGeometry x="1458.98" y="999.0500000000001" width="198.5" height="30" as="geometry" />
          </mxCell>
        </object>
        <object label="&lt;div align=&quot;left&quot;&gt;Scale: %scale%&lt;/div&gt;" placeholders="1" id="kxruepuoSyuf0zwoeRE9-6">
          <mxCell style="strokeWidth=1;shadow=0;dashed=0;align=left;html=1;shape=mxgraph.mockup.text.textBox;fontColor=#666666;align=left;fontSize=17;spacingLeft=4;spacingTop=-3;whiteSpace=wrap;strokeColor=#333333;mainText=;fillColor=none;fontFamily=Open Sans;movable=1;resizable=1;rotatable=1;deletable=1;editable=1;locked=0;connectable=1;" parent="1" vertex="1">
            <mxGeometry x="1338.98" y="999.0500000000001" width="120" height="30" as="geometry" />
          </mxCell>
        </object>
        <object label="Prepared By: %author%" placeholders="1" id="kxruepuoSyuf0zwoeRE9-7">
          <mxCell style="strokeWidth=1;shadow=0;dashed=0;align=center;html=1;shape=mxgraph.mockup.text.textBox;fontColor=#666666;align=left;fontSize=17;spacingLeft=4;spacingTop=-3;whiteSpace=wrap;strokeColor=#333333;mainText=;fillColor=none;fontFamily=Open Sans;movable=1;resizable=1;rotatable=1;deletable=1;editable=1;locked=0;connectable=1;" parent="1" vertex="1">
            <mxGeometry x="938.98" y="999.0500000000001" width="400" height="30" as="geometry" />
          </mxCell>
        </object>
        <object label="%extra_label% %dwg_no%%part_num%%serial_num%" placeholders="1" id="kxruepuoSyuf0zwoeRE9-8">
          <mxCell style="strokeWidth=1;shadow=0;dashed=0;align=center;html=1;shape=mxgraph.mockup.text.textBox;fontColor=#666666;align=left;fontSize=17;spacingLeft=4;spacingTop=-3;whiteSpace=wrap;strokeColor=#333333;mainText=;fillColor=none;fontFamily=Open Sans;movable=1;resizable=1;rotatable=1;deletable=1;editable=1;locked=0;connectable=1;" parent="1" vertex="1">
            <mxGeometry x="1338.98" y="969.0500000000001" width="318.5" height="30" as="geometry" />
          </mxCell>
        </object>
        <mxCell id="BJZrzUYKFe9HMTDBOYGV-4" value="" style="endArrow=none;html=1;rounded=0;strokeWidth=3;targetPerimeterSpacing=0;movable=1;resizable=1;rotatable=1;deletable=1;editable=1;locked=0;connectable=1;" parent="1" edge="1">
          <mxGeometry width="50" height="50" relative="1" as="geometry">
            <mxPoint x="848.422" y="59" as="sourcePoint" />
            <mxPoint x="848.422" y="19.69" as="targetPoint" />
          </mxGeometry>
        </mxCell>
        <mxCell id="BJZrzUYKFe9HMTDBOYGV-11" value="" style="endArrow=none;html=1;rounded=0;strokeWidth=3;movable=1;resizable=1;rotatable=1;deletable=1;editable=1;locked=0;connectable=1;" parent="1" edge="1">
          <mxGeometry width="50" height="50" relative="1" as="geometry">
            <mxPoint x="19.9" y="549.21" as="sourcePoint" />
            <mxPoint x="58.92" y="549.21" as="targetPoint" />
          </mxGeometry>
        </mxCell>
        <mxCell id="BJZrzUYKFe9HMTDBOYGV-27" value="" style="endArrow=none;html=1;rounded=0;movable=1;resizable=1;rotatable=1;deletable=1;editable=1;locked=0;connectable=1;" parent="1" edge="1">
          <mxGeometry width="50" height="50" relative="1" as="geometry">
            <mxPoint x="1045.27" y="39.69" as="sourcePoint" />
            <mxPoint x="1045.27" y="19.689999999999994" as="targetPoint" />
          </mxGeometry>
        </mxCell>
        <mxCell id="BJZrzUYKFe9HMTDBOYGV-34" value="" style="endArrow=none;html=1;rounded=0;movable=1;resizable=1;rotatable=1;deletable=1;editable=1;locked=0;connectable=1;" parent="1" edge="1">
          <mxGeometry width="50" height="50" relative="1" as="geometry">
            <mxPoint x="1242.1225" y="39.69" as="sourcePoint" />
            <mxPoint x="1242.1225" y="19.689999999999994" as="targetPoint" />
          </mxGeometry>
        </mxCell>
        <mxCell id="BJZrzUYKFe9HMTDBOYGV-35" value="" style="endArrow=none;html=1;rounded=0;movable=1;resizable=1;rotatable=1;deletable=1;editable=1;locked=0;connectable=1;" parent="1" edge="1">
          <mxGeometry width="50" height="50" relative="1" as="geometry">
            <mxPoint x="651.5649999999999" y="39.69" as="sourcePoint" />
            <mxPoint x="651.5649999999999" y="19.689999999999994" as="targetPoint" />
          </mxGeometry>
        </mxCell>
        <mxCell id="BJZrzUYKFe9HMTDBOYGV-36" value="" style="endArrow=none;html=1;rounded=0;movable=1;resizable=1;rotatable=1;deletable=1;editable=1;locked=0;connectable=1;" parent="1" edge="1">
          <mxGeometry width="50" height="50" relative="1" as="geometry">
            <mxPoint x="454.71749999999986" y="39.69" as="sourcePoint" />
            <mxPoint x="454.71749999999986" y="19.689999999999994" as="targetPoint" />
          </mxGeometry>
        </mxCell>
        <mxCell id="BJZrzUYKFe9HMTDBOYGV-45" value="" style="endArrow=none;html=1;rounded=0;movable=1;resizable=1;rotatable=1;deletable=1;editable=1;locked=0;connectable=1;" parent="1" edge="1">
          <mxGeometry width="50" height="50" relative="1" as="geometry">
            <mxPoint x="19.71000000000001" y="352.36999999999995" as="sourcePoint" />
            <mxPoint x="39.76000000000001" y="352.36999999999995" as="targetPoint" />
          </mxGeometry>
        </mxCell>
        <mxCell id="BJZrzUYKFe9HMTDBOYGV-46" value="" style="endArrow=none;html=1;rounded=0;movable=1;resizable=1;rotatable=1;deletable=1;editable=1;locked=0;connectable=1;" parent="1" edge="1">
          <mxGeometry width="50" height="50" relative="1" as="geometry">
            <mxPoint x="19.70250000000002" y="746.0725000000001" as="sourcePoint" />
            <mxPoint x="39.75250000000001" y="746.0725000000001" as="targetPoint" />
          </mxGeometry>
        </mxCell>
        <mxCell id="BJZrzUYKFe9HMTDBOYGV-49" value="B" style="text;html=1;strokeColor=none;fillColor=none;align=center;verticalAlign=middle;whiteSpace=wrap;rounded=0;fontFamily=Open Sans;fontSize=18;movable=1;resizable=1;rotatable=1;deletable=1;editable=1;locked=0;connectable=1;" parent="1" vertex="1">
          <mxGeometry x="19.890000000000004" y="244.09999999999997" width="19.685" height="19.685" as="geometry" />
        </mxCell>
        <mxCell id="BJZrzUYKFe9HMTDBOYGV-52" value="C" style="text;html=1;strokeColor=none;fillColor=none;align=center;verticalAlign=middle;whiteSpace=wrap;rounded=0;fontFamily=Open Sans;fontSize=18;movable=1;resizable=1;rotatable=1;deletable=1;editable=1;locked=0;connectable=1;" parent="1" vertex="1">
          <mxGeometry x="19.882499999999997" y="440.9525" width="19.685" height="19.685" as="geometry" />
        </mxCell>
        <mxCell id="BJZrzUYKFe9HMTDBOYGV-53" value="D" style="text;html=1;strokeColor=none;fillColor=none;align=center;verticalAlign=middle;whiteSpace=wrap;rounded=0;fontFamily=Open Sans;fontSize=18;movable=1;resizable=1;rotatable=1;deletable=1;editable=1;locked=0;connectable=1;" parent="1" vertex="1">
          <mxGeometry x="19.875000000000004" y="637.805" width="19.685" height="19.685" as="geometry" />
        </mxCell>
        <mxCell id="BJZrzUYKFe9HMTDBOYGV-54" value="E" style="text;html=1;strokeColor=none;fillColor=none;align=center;verticalAlign=middle;whiteSpace=wrap;rounded=0;fontFamily=Open Sans;fontSize=18;movable=1;resizable=1;rotatable=1;deletable=1;editable=1;locked=0;connectable=1;" parent="1" vertex="1">
          <mxGeometry x="19.8775" y="834.6500000000001" width="19.685" height="19.685" as="geometry" />
        </mxCell>
        <mxCell id="BJZrzUYKFe9HMTDBOYGV-59" value="2" style="text;html=1;strokeColor=none;fillColor=none;align=center;verticalAlign=middle;whiteSpace=wrap;rounded=0;fontFamily=Open Sans;fontSize=18;movable=1;resizable=1;rotatable=1;deletable=1;editable=1;locked=0;connectable=1;" parent="1" vertex="1">
          <mxGeometry x="346.45249999999993" y="19.852500000000003" width="19.685" height="19.685" as="geometry" />
        </mxCell>
        <mxCell id="BJZrzUYKFe9HMTDBOYGV-60" value="3" style="text;html=1;strokeColor=none;fillColor=none;align=center;verticalAlign=middle;whiteSpace=wrap;rounded=0;fontFamily=Open Sans;fontSize=18;movable=1;resizable=1;rotatable=1;deletable=1;editable=1;locked=0;connectable=1;" parent="1" vertex="1">
          <mxGeometry x="543.305" y="19.855" width="19.685" height="19.685" as="geometry" />
        </mxCell>
        <mxCell id="BJZrzUYKFe9HMTDBOYGV-61" value="4" style="text;html=1;strokeColor=none;fillColor=none;align=center;verticalAlign=middle;whiteSpace=wrap;rounded=0;fontFamily=Open Sans;fontSize=18;movable=1;resizable=1;rotatable=1;deletable=1;editable=1;locked=0;connectable=1;" parent="1" vertex="1">
          <mxGeometry x="740.1475" y="19.847500000000007" width="19.685" height="19.685" as="geometry" />
        </mxCell>
        <mxCell id="BJZrzUYKFe9HMTDBOYGV-62" value="5" style="text;html=1;strokeColor=none;fillColor=none;align=center;verticalAlign=middle;whiteSpace=wrap;rounded=0;fontFamily=Open Sans;fontSize=18;movable=1;resizable=1;rotatable=1;deletable=1;editable=1;locked=0;connectable=1;" parent="1" vertex="1">
          <mxGeometry x="937" y="19.84999999999999" width="19.685" height="19.685" as="geometry" />
        </mxCell>
        <mxCell id="BJZrzUYKFe9HMTDBOYGV-63" value="6" style="text;html=1;strokeColor=none;fillColor=none;align=center;verticalAlign=middle;whiteSpace=wrap;rounded=0;fontFamily=Open Sans;fontSize=18;movable=1;resizable=1;rotatable=1;deletable=1;editable=1;locked=0;connectable=1;" parent="1" vertex="1">
          <mxGeometry x="1133.8525" y="19.842499999999998" width="19.685" height="19.685" as="geometry" />
        </mxCell>
        <mxCell id="BJZrzUYKFe9HMTDBOYGV-64" value="7" style="text;html=1;strokeColor=none;fillColor=none;align=center;verticalAlign=middle;whiteSpace=wrap;rounded=0;fontFamily=Open Sans;fontSize=18;movable=1;resizable=1;rotatable=1;deletable=1;editable=1;locked=0;connectable=1;" parent="1" vertex="1">
          <mxGeometry x="1330.695" y="19.84500000000001" width="19.685" height="19.685" as="geometry" />
        </mxCell>
        <mxCell id="EybZttDDo1FT70o5lfqI-4" value="" style="endArrow=none;html=1;rounded=0;movable=1;resizable=1;rotatable=1;deletable=1;editable=1;locked=0;connectable=1;" parent="1" edge="1">
          <mxGeometry width="50" height="50" relative="1" as="geometry">
            <mxPoint x="257.86999999999983" y="39.6825" as="sourcePoint" />
            <mxPoint x="257.86999999999983" y="19.682499999999994" as="targetPoint" />
          </mxGeometry>
        </mxCell>
        <mxCell id="EybZttDDo1FT70o5lfqI-5" value="1" style="text;html=1;strokeColor=none;fillColor=none;align=center;verticalAlign=middle;whiteSpace=wrap;rounded=0;fontFamily=Open Sans;fontSize=18;movable=1;resizable=1;rotatable=1;deletable=1;editable=1;locked=0;connectable=1;" parent="1" vertex="1">
          <mxGeometry x="149.60499999999993" y="19.845000000000002" width="19.685" height="19.685" as="geometry" />
        </mxCell>
        <mxCell id="EybZttDDo1FT70o5lfqI-6" value="" style="endArrow=none;html=1;rounded=0;movable=1;resizable=1;rotatable=1;deletable=1;editable=1;locked=0;connectable=1;" parent="1" edge="1">
          <mxGeometry width="50" height="50" relative="1" as="geometry">
            <mxPoint x="1438.975" y="39.6825" as="sourcePoint" />
            <mxPoint x="1438.975" y="19.682499999999994" as="targetPoint" />
          </mxGeometry>
        </mxCell>
        <mxCell id="EybZttDDo1FT70o5lfqI-7" value="8" style="text;html=1;strokeColor=none;fillColor=none;align=center;verticalAlign=middle;whiteSpace=wrap;rounded=0;fontFamily=Open Sans;fontSize=18;movable=1;resizable=1;rotatable=1;deletable=1;editable=1;locked=0;connectable=1;" parent="1" vertex="1">
          <mxGeometry x="1527.5475" y="19.83750000000001" width="19.685" height="19.685" as="geometry" />
        </mxCell>
        <mxCell id="EybZttDDo1FT70o5lfqI-23" value="" style="endArrow=none;html=1;rounded=0;movable=1;resizable=1;rotatable=1;deletable=1;editable=1;locked=0;connectable=1;" parent="1" edge="1">
          <mxGeometry width="50" height="50" relative="1" as="geometry">
            <mxPoint x="19.68850000000001" y="155.51849999999996" as="sourcePoint" />
            <mxPoint x="39.73850000000001" y="155.51849999999996" as="targetPoint" />
          </mxGeometry>
        </mxCell>
        <mxCell id="EybZttDDo1FT70o5lfqI-24" value="A" style="text;html=1;strokeColor=none;fillColor=none;align=center;verticalAlign=middle;whiteSpace=wrap;rounded=0;fontFamily=Open Sans;fontSize=18;movable=1;resizable=1;rotatable=1;deletable=1;editable=1;locked=0;connectable=1;" parent="1" vertex="1">
          <mxGeometry x="19.8685" y="47.248499999999986" width="19.685" height="19.685" as="geometry" />
        </mxCell>
        <mxCell id="EybZttDDo1FT70o5lfqI-25" value="" style="endArrow=none;html=1;rounded=0;movable=1;resizable=1;rotatable=1;deletable=1;editable=1;locked=0;connectable=1;" parent="1" edge="1">
          <mxGeometry width="50" height="50" relative="1" as="geometry">
            <mxPoint x="19.70100000000002" y="942.9110000000001" as="sourcePoint" />
            <mxPoint x="39.75100000000001" y="942.9110000000001" as="targetPoint" />
          </mxGeometry>
        </mxCell>
        <mxCell id="EybZttDDo1FT70o5lfqI-26" value="F" style="text;html=1;strokeColor=none;fillColor=none;align=center;verticalAlign=middle;whiteSpace=wrap;rounded=0;fontFamily=Open Sans;fontSize=18;movable=1;resizable=1;rotatable=1;deletable=1;editable=1;locked=0;connectable=1;" parent="1" vertex="1">
          <mxGeometry x="19.876" y="1031.4885" width="19.685" height="19.685" as="geometry" />
        </mxCell>
        <mxCell id="kSMUZycboNcQB7_dOgC3-2" value="" style="endArrow=none;html=1;rounded=0;strokeWidth=3;targetPerimeterSpacing=0;movable=1;resizable=1;rotatable=1;deletable=1;editable=1;locked=0;connectable=1;" edge="1" parent="1">
          <mxGeometry width="50" height="50" relative="1" as="geometry">
            <mxPoint x="848.422" y="1078.9085000000002" as="sourcePoint" />
            <mxPoint x="848.422" y="1039.2" as="targetPoint" />
          </mxGeometry>
        </mxCell>
        <mxCell id="kSMUZycboNcQB7_dOgC3-3" value="" style="endArrow=none;html=1;rounded=0;movable=1;resizable=1;rotatable=1;deletable=1;editable=1;locked=0;connectable=1;" edge="1" parent="1">
          <mxGeometry width="50" height="50" relative="1" as="geometry">
            <mxPoint x="1045.2685" y="1079.0585" as="sourcePoint" />
            <mxPoint x="1045.2685" y="1059.0585" as="targetPoint" />
          </mxGeometry>
        </mxCell>
        <mxCell id="kSMUZycboNcQB7_dOgC3-4" value="" style="endArrow=none;html=1;rounded=0;movable=1;resizable=1;rotatable=1;deletable=1;editable=1;locked=0;connectable=1;" edge="1" parent="1">
          <mxGeometry width="50" height="50" relative="1" as="geometry">
            <mxPoint x="1242.1209999999999" y="1079.0585" as="sourcePoint" />
            <mxPoint x="1242.1209999999999" y="1059.0585" as="targetPoint" />
          </mxGeometry>
        </mxCell>
        <mxCell id="kSMUZycboNcQB7_dOgC3-5" value="" style="endArrow=none;html=1;rounded=0;movable=1;resizable=1;rotatable=1;deletable=1;editable=1;locked=0;connectable=1;" edge="1" parent="1">
          <mxGeometry width="50" height="50" relative="1" as="geometry">
            <mxPoint x="651.5634999999999" y="1079.0585" as="sourcePoint" />
            <mxPoint x="651.5634999999999" y="1059.0585" as="targetPoint" />
          </mxGeometry>
        </mxCell>
        <mxCell id="kSMUZycboNcQB7_dOgC3-6" value="" style="endArrow=none;html=1;rounded=0;movable=1;resizable=1;rotatable=1;deletable=1;editable=1;locked=0;connectable=1;" edge="1" parent="1">
          <mxGeometry width="50" height="50" relative="1" as="geometry">
            <mxPoint x="454.71599999999984" y="1079.0585" as="sourcePoint" />
            <mxPoint x="454.71599999999984" y="1059.0585" as="targetPoint" />
          </mxGeometry>
        </mxCell>
        <mxCell id="kSMUZycboNcQB7_dOgC3-7" value="2" style="text;html=1;strokeColor=none;fillColor=none;align=center;verticalAlign=middle;whiteSpace=wrap;rounded=0;fontFamily=Open Sans;fontSize=18;movable=1;resizable=1;rotatable=1;deletable=1;editable=1;locked=0;connectable=1;" vertex="1" parent="1">
          <mxGeometry x="346.4509999999999" y="1059.221" width="19.685" height="19.685" as="geometry" />
        </mxCell>
        <mxCell id="kSMUZycboNcQB7_dOgC3-8" value="3" style="text;html=1;strokeColor=none;fillColor=none;align=center;verticalAlign=middle;whiteSpace=wrap;rounded=0;fontFamily=Open Sans;fontSize=18;movable=1;resizable=1;rotatable=1;deletable=1;editable=1;locked=0;connectable=1;" vertex="1" parent="1">
          <mxGeometry x="543.3034999999999" y="1059.2235" width="19.685" height="19.685" as="geometry" />
        </mxCell>
        <mxCell id="kSMUZycboNcQB7_dOgC3-9" value="4" style="text;html=1;strokeColor=none;fillColor=none;align=center;verticalAlign=middle;whiteSpace=wrap;rounded=0;fontFamily=Open Sans;fontSize=18;movable=1;resizable=1;rotatable=1;deletable=1;editable=1;locked=0;connectable=1;" vertex="1" parent="1">
          <mxGeometry x="740.146" y="1059.2160000000001" width="19.685" height="19.685" as="geometry" />
        </mxCell>
        <mxCell id="kSMUZycboNcQB7_dOgC3-10" value="5" style="text;html=1;strokeColor=none;fillColor=none;align=center;verticalAlign=middle;whiteSpace=wrap;rounded=0;fontFamily=Open Sans;fontSize=18;movable=1;resizable=1;rotatable=1;deletable=1;editable=1;locked=0;connectable=1;" vertex="1" parent="1">
          <mxGeometry x="936.9984999999999" y="1059.2185000000002" width="19.685" height="19.685" as="geometry" />
        </mxCell>
        <mxCell id="kSMUZycboNcQB7_dOgC3-11" value="6" style="text;html=1;strokeColor=none;fillColor=none;align=center;verticalAlign=middle;whiteSpace=wrap;rounded=0;fontFamily=Open Sans;fontSize=18;movable=1;resizable=1;rotatable=1;deletable=1;editable=1;locked=0;connectable=1;" vertex="1" parent="1">
          <mxGeometry x="1133.8509999999999" y="1059.211" width="19.685" height="19.685" as="geometry" />
        </mxCell>
        <mxCell id="kSMUZycboNcQB7_dOgC3-12" value="7" style="text;html=1;strokeColor=none;fillColor=none;align=center;verticalAlign=middle;whiteSpace=wrap;rounded=0;fontFamily=Open Sans;fontSize=18;movable=1;resizable=1;rotatable=1;deletable=1;editable=1;locked=0;connectable=1;" vertex="1" parent="1">
          <mxGeometry x="1330.6934999999999" y="1059.2135" width="19.685" height="19.685" as="geometry" />
        </mxCell>
        <mxCell id="kSMUZycboNcQB7_dOgC3-13" value="" style="endArrow=none;html=1;rounded=0;movable=1;resizable=1;rotatable=1;deletable=1;editable=1;locked=0;connectable=1;" edge="1" parent="1">
          <mxGeometry width="50" height="50" relative="1" as="geometry">
            <mxPoint x="257.8684999999998" y="1079.0510000000002" as="sourcePoint" />
            <mxPoint x="257.8684999999998" y="1059.0510000000002" as="targetPoint" />
          </mxGeometry>
        </mxCell>
        <mxCell id="kSMUZycboNcQB7_dOgC3-14" value="1" style="text;html=1;strokeColor=none;fillColor=none;align=center;verticalAlign=middle;whiteSpace=wrap;rounded=0;fontFamily=Open Sans;fontSize=18;movable=1;resizable=1;rotatable=1;deletable=1;editable=1;locked=0;connectable=1;" vertex="1" parent="1">
          <mxGeometry x="149.60349999999994" y="1059.2135" width="19.685" height="19.685" as="geometry" />
        </mxCell>
        <mxCell id="kSMUZycboNcQB7_dOgC3-15" value="" style="endArrow=none;html=1;rounded=0;movable=1;resizable=1;rotatable=1;deletable=1;editable=1;locked=0;connectable=1;" edge="1" parent="1">
          <mxGeometry width="50" height="50" relative="1" as="geometry">
            <mxPoint x="1438.9734999999998" y="1079.0510000000002" as="sourcePoint" />
            <mxPoint x="1438.9734999999998" y="1059.0510000000002" as="targetPoint" />
          </mxGeometry>
        </mxCell>
        <mxCell id="kSMUZycboNcQB7_dOgC3-16" value="8" style="text;html=1;strokeColor=none;fillColor=none;align=center;verticalAlign=middle;whiteSpace=wrap;rounded=0;fontFamily=Open Sans;fontSize=18;movable=1;resizable=1;rotatable=1;deletable=1;editable=1;locked=0;connectable=1;" vertex="1" parent="1">
          <mxGeometry x="1527.5459999999998" y="1059.2060000000001" width="19.685" height="19.685" as="geometry" />
        </mxCell>
        <mxCell id="kSMUZycboNcQB7_dOgC3-17" value="" style="endArrow=none;html=1;rounded=0;strokeWidth=3;movable=1;resizable=1;rotatable=1;deletable=1;editable=1;locked=0;connectable=1;" edge="1" parent="1">
          <mxGeometry width="50" height="50" relative="1" as="geometry">
            <mxPoint x="1637.6" y="549.21" as="sourcePoint" />
            <mxPoint x="1677.3685" y="549.21" as="targetPoint" />
          </mxGeometry>
        </mxCell>
        <mxCell id="kSMUZycboNcQB7_dOgC3-18" value="" style="endArrow=none;html=1;rounded=0;movable=1;resizable=1;rotatable=1;deletable=1;editable=1;locked=0;connectable=1;" edge="1" parent="1">
          <mxGeometry width="50" height="50" relative="1" as="geometry">
            <mxPoint x="1657.4985" y="352.3684999999999" as="sourcePoint" />
            <mxPoint x="1677.5484999999999" y="352.3684999999999" as="targetPoint" />
          </mxGeometry>
        </mxCell>
        <mxCell id="kSMUZycboNcQB7_dOgC3-19" value="" style="endArrow=none;html=1;rounded=0;movable=1;resizable=1;rotatable=1;deletable=1;editable=1;locked=0;connectable=1;" edge="1" parent="1">
          <mxGeometry width="50" height="50" relative="1" as="geometry">
            <mxPoint x="1657.491" y="746.0710000000001" as="sourcePoint" />
            <mxPoint x="1677.541" y="746.0710000000001" as="targetPoint" />
          </mxGeometry>
        </mxCell>
        <mxCell id="kSMUZycboNcQB7_dOgC3-20" value="B" style="text;html=1;strokeColor=none;fillColor=none;align=center;verticalAlign=middle;whiteSpace=wrap;rounded=0;fontFamily=Open Sans;fontSize=18;movable=1;resizable=1;rotatable=1;deletable=1;editable=1;locked=0;connectable=1;" vertex="1" parent="1">
          <mxGeometry x="1657.6785" y="244.09849999999997" width="19.685" height="19.685" as="geometry" />
        </mxCell>
        <mxCell id="kSMUZycboNcQB7_dOgC3-21" value="C" style="text;html=1;strokeColor=none;fillColor=none;align=center;verticalAlign=middle;whiteSpace=wrap;rounded=0;fontFamily=Open Sans;fontSize=18;movable=1;resizable=1;rotatable=1;deletable=1;editable=1;locked=0;connectable=1;" vertex="1" parent="1">
          <mxGeometry x="1657.6709999999998" y="440.95099999999996" width="19.685" height="19.685" as="geometry" />
        </mxCell>
        <mxCell id="kSMUZycboNcQB7_dOgC3-22" value="D" style="text;html=1;strokeColor=none;fillColor=none;align=center;verticalAlign=middle;whiteSpace=wrap;rounded=0;fontFamily=Open Sans;fontSize=18;movable=1;resizable=1;rotatable=1;deletable=1;editable=1;locked=0;connectable=1;" vertex="1" parent="1">
          <mxGeometry x="1657.6634999999999" y="637.8035" width="19.685" height="19.685" as="geometry" />
        </mxCell>
        <mxCell id="kSMUZycboNcQB7_dOgC3-23" value="E" style="text;html=1;strokeColor=none;fillColor=none;align=center;verticalAlign=middle;whiteSpace=wrap;rounded=0;fontFamily=Open Sans;fontSize=18;movable=1;resizable=1;rotatable=1;deletable=1;editable=1;locked=0;connectable=1;" vertex="1" parent="1">
          <mxGeometry x="1657.666" y="834.6485000000001" width="19.685" height="19.685" as="geometry" />
        </mxCell>
        <mxCell id="kSMUZycboNcQB7_dOgC3-24" value="" style="endArrow=none;html=1;rounded=0;movable=1;resizable=1;rotatable=1;deletable=1;editable=1;locked=0;connectable=1;" edge="1" parent="1">
          <mxGeometry width="50" height="50" relative="1" as="geometry">
            <mxPoint x="1657.4769999999999" y="155.51699999999997" as="sourcePoint" />
            <mxPoint x="1677.527" y="155.51699999999997" as="targetPoint" />
          </mxGeometry>
        </mxCell>
        <mxCell id="kSMUZycboNcQB7_dOgC3-25" value="A" style="text;html=1;strokeColor=none;fillColor=none;align=center;verticalAlign=middle;whiteSpace=wrap;rounded=0;fontFamily=Open Sans;fontSize=18;movable=1;resizable=1;rotatable=1;deletable=1;editable=1;locked=0;connectable=1;" vertex="1" parent="1">
          <mxGeometry x="1657.657" y="47.246999999999986" width="19.685" height="19.685" as="geometry" />
        </mxCell>
        <mxCell id="kSMUZycboNcQB7_dOgC3-26" value="" style="endArrow=none;html=1;rounded=0;movable=1;resizable=1;rotatable=1;deletable=1;editable=1;locked=0;connectable=1;" edge="1" parent="1">
          <mxGeometry width="50" height="50" relative="1" as="geometry">
            <mxPoint x="1657.4895" y="942.9095000000001" as="sourcePoint" />
            <mxPoint x="1677.5394999999999" y="942.9095000000001" as="targetPoint" />
          </mxGeometry>
        </mxCell>
        <mxCell id="kSMUZycboNcQB7_dOgC3-27" value="F" style="text;html=1;strokeColor=none;fillColor=none;align=center;verticalAlign=middle;whiteSpace=wrap;rounded=0;fontFamily=Open Sans;fontSize=18;movable=1;resizable=1;rotatable=1;deletable=1;editable=1;locked=0;connectable=1;" vertex="1" parent="1">
          <mxGeometry x="1657.6644999999999" y="1031.4869999999999" width="19.685" height="19.685" as="geometry" />
        </mxCell>
        <object label="Drawing Frame" id="BJZrzUYKFe9HMTDBOYGV-83">
          <mxCell style="locked=1;" parent="0" />
        </object>
        <mxCell id="BJZrzUYKFe9HMTDBOYGV-84" value="" style="rounded=0;whiteSpace=wrap;html=1;fillColor=none;strokeWidth=3;movable=1;resizable=1;rotatable=1;deletable=1;editable=1;locked=0;connectable=1;" parent="BJZrzUYKFe9HMTDBOYGV-83" vertex="1">
          <mxGeometry x="39.3725" y="39.37" width="1618.107" height="1019.683" as="geometry" />
        </mxCell>
        <object label="Document" id="NbdiYjX3MhI7OpqD2NvG-1">
          <mxCell parent="0" />
        </object>
        <mxCell id="kxruepuoSyuf0zwoeRE9-1" value="This text is on the document layer. Lower layers have the title block and grid reference frame. These layers are locked to prevent disturbance, but you can unlock them in the &quot;Layers&quot; panel." style="text;html=1;strokeColor=none;fillColor=none;align=center;verticalAlign=middle;whiteSpace=wrap;rounded=0;fontFamily=Open Sans;movable=1;resizable=1;rotatable=1;deletable=1;editable=1;locked=0;connectable=1;" parent="NbdiYjX3MhI7OpqD2NvG-1" vertex="1">
          <mxGeometry x="196.85000000000002" y="147.64" width="330" height="70" as="geometry" />
        </mxCell>
      </root>
    </mxGraphModel>
  </diagram>
</mxfile>
